<svg width="252" height="56" viewBox="0 0 252 56" fill="none" xmlns="http://www.w3.org/2000/svg">
<path d="M60.0568 24.875H55.0795C54.9886 24.2311 54.803 23.6591 54.5227 23.1591C54.2424 22.6515 53.8826 22.2197 53.4432 21.8636C53.0038 21.5076 52.4962 21.2348 51.9205 21.0455C51.3523 20.8561 50.7348 20.7614 50.0682 20.7614C48.8636 20.7614 47.8144 21.0606 46.9205 21.6591C46.0265 22.25 45.3333 23.1136 44.8409 24.25C44.3485 25.3788 44.1023 26.75 44.1023 28.3636C44.1023 30.0227 44.3485 31.4167 44.8409 32.5455C45.3409 33.6742 46.0379 34.5265 46.9318 35.1023C47.8258 35.678 48.8598 35.9659 50.0341 35.9659C50.6932 35.9659 51.303 35.8788 51.8636 35.7045C52.4318 35.5303 52.9356 35.2765 53.375 34.9432C53.8144 34.6023 54.178 34.1894 54.4659 33.7045C54.7614 33.2197 54.9659 32.6667 55.0795 32.0455L60.0568 32.0682C59.928 33.1364 59.6061 34.1667 59.0909 35.1591C58.5833 36.1439 57.8977 37.0265 57.0341 37.8068C56.178 38.5795 55.1553 39.1932 53.9659 39.6477C52.7841 40.0947 51.447 40.3182 49.9545 40.3182C47.8788 40.3182 46.0227 39.8485 44.3864 38.9091C42.7576 37.9697 41.4697 36.6098 40.5227 34.8295C39.5833 33.0492 39.1136 30.8939 39.1136 28.3636C39.1136 25.8258 39.5909 23.6667 40.5455 21.8864C41.5 20.1061 42.7955 18.75 44.4318 17.8182C46.0682 16.8788 47.9091 16.4091 49.9545 16.4091C51.303 16.4091 52.553 16.5985 53.7045 16.9773C54.8636 17.3561 55.8902 17.9091 56.7841 18.6364C57.678 19.3561 58.4053 20.2386 58.9659 21.2841C59.5341 22.3295 59.8977 23.5265 60.0568 24.875ZM63.4943 40V22.5455H68.3352V40H63.4943ZM65.9261 20.2955C65.2064 20.2955 64.589 20.0568 64.0739 19.5795C63.5663 19.0947 63.3125 18.5152 63.3125 17.8409C63.3125 17.1742 63.5663 16.6023 64.0739 16.125C64.589 15.6402 65.2064 15.3977 65.9261 15.3977C66.6458 15.3977 67.2595 15.6402 67.767 16.125C68.2822 16.6023 68.5398 17.1742 68.5398 17.8409C68.5398 18.5152 68.2822 19.0947 67.767 19.5795C67.2595 20.0568 66.6458 20.2955 65.9261 20.2955ZM77.054 29.9091V40H72.2131V22.5455H76.8267V25.625H77.0312C77.4176 24.6098 78.0653 23.8068 78.9744 23.2159C79.8835 22.6174 80.9858 22.3182 82.2812 22.3182C83.4934 22.3182 84.5502 22.5833 85.4517 23.1136C86.3532 23.6439 87.054 24.4015 87.554 25.3864C88.054 26.3636 88.304 27.5303 88.304 28.8864V40H83.4631V29.75C83.4706 28.6818 83.1979 27.8485 82.6449 27.25C82.0919 26.6439 81.3305 26.3409 80.3608 26.3409C79.7093 26.3409 79.1335 26.4811 78.6335 26.7614C78.1411 27.0417 77.7547 27.4508 77.4744 27.9886C77.2017 28.5189 77.0616 29.1591 77.054 29.9091ZM100.074 40.3409C98.2784 40.3409 96.733 39.9773 95.4375 39.25C94.1496 38.5152 93.1572 37.4773 92.4602 36.1364C91.7633 34.7879 91.4148 33.1932 91.4148 31.3523C91.4148 29.5568 91.7633 27.9811 92.4602 26.625C93.1572 25.2689 94.1383 24.2121 95.4034 23.4545C96.6761 22.697 98.1686 22.3182 99.8807 22.3182C101.032 22.3182 102.104 22.5038 103.097 22.875C104.097 23.2386 104.968 23.7879 105.71 24.5227C106.46 25.2576 107.044 26.1818 107.46 27.2955C107.877 28.4015 108.085 29.697 108.085 31.1818V32.5114H93.3466V29.5114H103.528C103.528 28.8144 103.377 28.197 103.074 27.6591C102.771 27.1212 102.35 26.7008 101.812 26.3977C101.282 26.0871 100.665 25.9318 99.9602 25.9318C99.2254 25.9318 98.5739 26.1023 98.0057 26.4432C97.4451 26.7765 97.0057 27.2273 96.6875 27.7955C96.3693 28.3561 96.2064 28.9811 96.1989 29.6705V32.5227C96.1989 33.3864 96.358 34.1326 96.6761 34.7614C97.0019 35.3902 97.4602 35.875 98.0511 36.2159C98.642 36.5568 99.3428 36.7273 100.153 36.7273C100.691 36.7273 101.184 36.6515 101.631 36.5C102.078 36.3485 102.46 36.1212 102.778 35.8182C103.097 35.5152 103.339 35.1439 103.506 34.7045L107.983 35C107.756 36.0758 107.29 37.0152 106.585 37.8182C105.888 38.6136 104.987 39.2348 103.881 39.6818C102.782 40.1212 101.513 40.3409 100.074 40.3409ZM115.347 40H110.074L118.108 16.7273H124.449L132.472 40H127.199L121.369 22.0455H121.188L115.347 40ZM115.017 30.8523H127.472V34.6932H115.017V30.8523ZM135.182 40V22.5455H139.875V25.5909H140.057C140.375 24.5076 140.909 23.6894 141.659 23.1364C142.409 22.5758 143.273 22.2955 144.25 22.2955C144.492 22.2955 144.754 22.3106 145.034 22.3409C145.314 22.3712 145.561 22.4129 145.773 22.4659V26.7614C145.545 26.6932 145.231 26.6326 144.83 26.5795C144.428 26.5265 144.061 26.5 143.727 26.5C143.015 26.5 142.379 26.6553 141.818 26.9659C141.265 27.2689 140.826 27.6932 140.5 28.2386C140.182 28.7841 140.023 29.4129 140.023 30.125V40H135.182ZM158.435 22.5455V26.1818H147.923V22.5455H158.435ZM150.31 18.3636H155.151V34.6364C155.151 35.0833 155.219 35.4318 155.355 35.6818C155.491 35.9242 155.681 36.0947 155.923 36.1932C156.173 36.2917 156.461 36.3409 156.787 36.3409C157.014 36.3409 157.241 36.322 157.469 36.2841C157.696 36.2386 157.87 36.2045 157.991 36.1818L158.753 39.7841C158.51 39.8598 158.17 39.947 157.73 40.0455C157.291 40.1515 156.757 40.2159 156.128 40.2386C154.961 40.2841 153.938 40.1288 153.06 39.7727C152.188 39.4167 151.51 38.8636 151.026 38.1136C150.541 37.3636 150.302 36.4167 150.31 35.2727V18.3636ZM169.355 40.3409C167.56 40.3409 166.014 39.9773 164.719 39.25C163.431 38.5152 162.438 37.4773 161.741 36.1364C161.045 34.7879 160.696 33.1932 160.696 31.3523C160.696 29.5568 161.045 27.9811 161.741 26.625C162.438 25.2689 163.42 24.2121 164.685 23.4545C165.957 22.697 167.45 22.3182 169.162 22.3182C170.313 22.3182 171.385 22.5038 172.378 22.875C173.378 23.2386 174.249 23.7879 174.991 24.5227C175.741 25.2576 176.325 26.1818 176.741 27.2955C177.158 28.4015 177.366 29.697 177.366 31.1818V32.5114H162.628V29.5114H172.81C172.81 28.8144 172.658 28.197 172.355 27.6591C172.052 27.1212 171.632 26.7008 171.094 26.3977C170.563 26.0871 169.946 25.9318 169.241 25.9318C168.507 25.9318 167.855 26.1023 167.287 26.4432C166.726 26.7765 166.287 27.2273 165.969 27.7955C165.651 28.3561 165.488 28.9811 165.48 29.6705V32.5227C165.48 33.3864 165.639 34.1326 165.957 34.7614C166.283 35.3902 166.741 35.875 167.332 36.2159C167.923 36.5568 168.624 36.7273 169.435 36.7273C169.973 36.7273 170.465 36.6515 170.912 36.5C171.359 36.3485 171.741 36.1212 172.06 35.8182C172.378 35.5152 172.62 35.1439 172.787 34.7045L177.264 35C177.037 36.0758 176.571 37.0152 175.866 37.8182C175.17 38.6136 174.268 39.2348 173.162 39.6818C172.063 40.1212 170.795 40.3409 169.355 40.3409Z" fill="#F7DA35"/>
<path d="M201.011 19.5V7.86364H203.472V12.6648H208.466V7.86364H210.92V19.5H208.466V14.6932H203.472V19.5H201.011ZM216.847 19.6705C215.964 19.6705 215.201 19.483 214.557 19.108C213.917 18.7292 213.422 18.2027 213.074 17.5284C212.725 16.8504 212.551 16.0644 212.551 15.1705C212.551 14.2689 212.725 13.4811 213.074 12.8068C213.422 12.1288 213.917 11.6023 214.557 11.2273C215.201 10.8485 215.964 10.6591 216.847 10.6591C217.729 10.6591 218.491 10.8485 219.131 11.2273C219.775 11.6023 220.271 12.1288 220.619 12.8068C220.968 13.4811 221.142 14.2689 221.142 15.1705C221.142 16.0644 220.968 16.8504 220.619 17.5284C220.271 18.2027 219.775 18.7292 219.131 19.108C218.491 19.483 217.729 19.6705 216.847 19.6705ZM216.858 17.7955C217.259 17.7955 217.595 17.6818 217.864 17.4545C218.133 17.2235 218.335 16.9091 218.472 16.5114C218.612 16.1136 218.682 15.661 218.682 15.1534C218.682 14.6458 218.612 14.1932 218.472 13.7955C218.335 13.3977 218.133 13.0833 217.864 12.8523C217.595 12.6212 217.259 12.5057 216.858 12.5057C216.453 12.5057 216.112 12.6212 215.835 12.8523C215.563 13.0833 215.356 13.3977 215.216 13.7955C215.08 14.1932 215.011 14.6458 215.011 15.1534C215.011 15.661 215.08 16.1136 215.216 16.5114C215.356 16.9091 215.563 17.2235 215.835 17.4545C216.112 17.6818 216.453 17.7955 216.858 17.7955ZM222.716 19.5V10.7727H225.023V12.3125H225.125C225.307 11.8011 225.61 11.3977 226.034 11.1023C226.458 10.8068 226.966 10.6591 227.557 10.6591C228.155 10.6591 228.665 10.8087 229.085 11.108C229.506 11.4034 229.786 11.8049 229.926 12.3125H230.017C230.195 11.8125 230.517 11.4129 230.983 11.1136C231.453 10.8106 232.008 10.6591 232.648 10.6591C233.462 10.6591 234.123 10.9186 234.631 11.4375C235.142 11.9527 235.398 12.6837 235.398 13.6307V19.5H232.983V14.108C232.983 13.6231 232.854 13.2595 232.597 13.017C232.339 12.7746 232.017 12.6534 231.631 12.6534C231.191 12.6534 230.848 12.7936 230.602 13.0739C230.356 13.3504 230.233 13.7159 230.233 14.1705V19.5H227.886V14.0568C227.886 13.6288 227.763 13.2879 227.517 13.0341C227.275 12.7803 226.955 12.6534 226.557 12.6534C226.288 12.6534 226.045 12.7216 225.83 12.858C225.617 12.9905 225.449 13.178 225.324 13.4205C225.199 13.6591 225.136 13.9394 225.136 14.2614V19.5H222.716ZM241.287 19.6705C240.389 19.6705 239.616 19.4886 238.969 19.125C238.325 18.7576 237.829 18.2386 237.48 17.5682C237.132 16.8939 236.957 16.0966 236.957 15.1761C236.957 14.2784 237.132 13.4905 237.48 12.8125C237.829 12.1345 238.319 11.6061 238.952 11.2273C239.588 10.8485 240.334 10.6591 241.19 10.6591C241.766 10.6591 242.302 10.7519 242.798 10.9375C243.298 11.1193 243.734 11.3939 244.105 11.7614C244.48 12.1288 244.772 12.5909 244.98 13.1477C245.188 13.7008 245.293 14.3485 245.293 15.0909V15.7557H237.923V14.2557H243.014C243.014 13.9072 242.938 13.5985 242.787 13.3295C242.635 13.0606 242.425 12.8504 242.156 12.6989C241.891 12.5436 241.582 12.4659 241.23 12.4659C240.863 12.4659 240.537 12.5511 240.253 12.7216C239.973 12.8883 239.753 13.1136 239.594 13.3977C239.435 13.678 239.353 13.9905 239.349 14.3352V15.7614C239.349 16.1932 239.429 16.5663 239.588 16.8807C239.751 17.1951 239.98 17.4375 240.276 17.608C240.571 17.7784 240.921 17.8636 241.327 17.8636C241.596 17.8636 241.842 17.8258 242.065 17.75C242.289 17.6742 242.48 17.5606 242.639 17.4091C242.798 17.2576 242.92 17.072 243.003 16.8523L245.241 17C245.128 17.5379 244.895 18.0076 244.543 18.4091C244.194 18.8068 243.743 19.1174 243.19 19.3409C242.641 19.5606 242.007 19.6705 241.287 19.6705Z" fill="white"/>
</svg>
